P2
60 30
255
76 140 200 236 234 234 231 230 224 217 207 188 157 114 196 147 81 17 90 98 62 128 193 206 213 190 174 166 172 172 171 169 163 159 138 97 48 50 72 74 39 78 108 85 62 83 122 139 146 155 153 156 156 157 157 156 154 151 150 150 
130 203 234 233 237 235 233 230 218 211 208 192 159 101 150 126 58 26 82 110 83 131 214 233 227 191 169 176 175 173 172 171 169 165 124 55 52 86 113 91 40 83 128 124 79 93 134 150 154 161 154 159 158 160 161 159 156 156 155 153 
182 228 235 235 238 235 230 224 221 221 212 198 168 109 101 120 61 33 93 109 85 156 225 244 223 195 178 175 174 171 176 178 170 164 91 44 76 101 116 72 7 67 128 117 84 116 147 157 157 160 163 161 162 161 161 160 160 159 157 156 
199 234 237 237 239 233 228 225 224 223 212 196 179 136 101 103 94 89 105 93 80 159 231 245 223 198 181 170 173 179 178 177 171 141 88 53 73 110 119 87 29 75 107 99 115 136 156 161 161 164 165 163 164 163 163 163 162 161 160 158 
216 237 238 239 239 231 226 227 229 226 212 195 185 176 152 133 119 104 100 97 97 173 237 240 216 195 179 167 171 178 178 181 166 99 76 75 62 89 101 99 79 100 113 121 146 154 161 163 164 166 167 165 165 165 164 164 164 162 160 158 
221 235 238 239 238 228 225 230 232 226 211 196 187 177 173 171 169 165 154 143 145 202 244 236 207 187 177 171 172 175 178 181 159 97 92 104 98 103 114 121 135 135 145 155 160 161 163 164 166 168 168 168 167 166 166 165 164 163 160 159 
223 234 240 238 235 228 227 233 233 225 211 200 187 183 187 182 174 175 170 164 191 223 242 228 197 175 169 173 176 176 180 176 160 145 142 134 149 148 153 150 161 162 167 164 165 165 166 168 170 170 169 169 167 167 166 166 166 165 163 162 
226 237 242 238 234 229 230 235 232 224 213 204 200 195 189 184 183 180 182 196 215 232 237 219 190 169 166 173 178 172 178 175 163 174 171 160 165 165 166 171 165 169 168 169 167 168 169 171 171 169 167 166 164 163 163 164 164 165 164 164 
224 237 242 239 234 231 232 235 232 225 216 209 204 204 196 191 190 187 199 222 224 238 234 207 180 168 169 175 174 168 172 174 167 174 174 175 173 171 168 177 170 169 165 173 168 169 169 169 169 168 167 165 162 161 160 160 161 162 162 162 
219 235 242 240 236 232 233 235 232 226 218 211 209 214 205 194 193 206 220 215 220 234 224 187 160 158 164 168 169 172 170 169 174 179 180 179 175 177 172 166 171 172 169 168 168 169 168 167 168 169 169 167 164 163 161 160 160 161 161 161 
218 236 240 240 239 235 235 231 228 227 220 218 215 223 215 203 206 212 214 219 219 234 193 155 142 147 153 151 161 162 167 175 178 177 178 180 181 178 176 173 170 169 168 168 166 167 168 169 169 168 168 169 167 167 165 162 158 157 158 160 
217 237 242 240 237 234 234 229 226 224 218 220 222 221 212 208 214 217 211 206 226 227 173 130 128 127 130 134 144 159 172 175 174 176 180 181 177 175 173 172 171 170 168 167 165 166 166 166 164 163 164 166 167 167 166 164 161 159 159 160 
205 231 240 239 239 233 227 219 216 216 217 227 233 226 219 218 220 217 204 189 188 193 151 129 123 126 120 122 134 137 148 166 178 182 182 182 180 177 174 173 173 171 167 163 163 162 163 163 162 160 161 164 168 168 167 166 163 161 159 157 
169 212 237 242 240 231 221 210 206 204 207 221 227 223 224 224 220 218 208 190 156 124 87 129 123 109 67 66 89 110 143 170 180 178 178 181 181 180 177 174 173 170 165 161 160 158 158 160 162 162 163 165 165 165 165 165 164 163 160 159 
122 189 230 241 238 230 219 208 201 193 191 205 232 230 234 230 221 219 211 192 168 133 90 129 123 105 60 67 106 141 173 180 178 182 184 181 177 178 177 174 172 170 167 163 152 145 141 143 147 150 153 156 157 158 160 162 163 163 163 162 
122 198 238 243 237 228 214 201 194 185 186 207 239 233 231 225 215 210 199 178 164 168 134 108 95 93 95 127 157 167 172 169 170 176 177 171 176 179 179 177 174 172 168 164 155 145 136 136 140 144 148 153 153 155 157 159 160 160 160 159 
140 207 236 235 237 228 211 194 186 180 190 221 230 219 215 214 207 197 183 166 163 160 140 103 77 78 112 154 163 164 167 172 172 169 170 174 173 176 178 177 176 174 168 161 146 137 129 128 130 131 135 140 148 152 156 158 158 157 156 155 
161 218 241 242 238 230 214 196 185 178 190 225 235 222 217 218 210 193 176 165 154 145 146 122 74 86 127 148 160 161 162 160 159 159 160 160 164 168 172 174 176 175 168 160 147 141 137 137 136 133 135 140 141 146 153 157 158 158 157 157 
164 218 239 242 241 230 215 197 180 177 198 224 229 226 212 204 199 188 173 158 147 138 132 116 92 95 117 129 146 156 161 161 164 167 166 164 166 165 167 170 171 172 166 155 144 143 143 145 146 146 145 146 147 150 153 156 158 157 156 156 
180 227 241 240 242 235 224 207 186 175 185 201 212 217 209 198 184 170 162 154 141 132 122 104 82 85 109 126 128 140 147 147 150 153 155 157 163 165 169 172 171 168 158 145 140 140 140 141 140 140 141 144 146 148 151 153 153 153 153 153 
215 238 243 242 240 234 222 206 187 173 171 175 207 216 214 205 190 177 170 161 145 129 110 90 73 75 95 113 121 132 138 135 134 137 143 149 149 150 154 157 159 161 159 151 137 135 132 130 128 129 134 140 143 146 149 153 155 155 156 156 
232 238 239 238 230 224 213 201 190 180 170 164 170 198 218 217 197 180 175 169 144 124 101 87 79 77 82 90 115 127 134 133 133 137 143 149 155 157 161 160 156 152 144 133 140 137 135 133 131 131 135 139 144 147 151 153 154 154 153 152 
228 238 240 237 231 227 218 206 194 180 164 152 145 173 202 218 215 207 196 177 146 129 112 104 99 92 87 86 93 105 114 119 126 132 138 143 145 148 154 155 152 150 146 138 129 129 131 133 134 132 131 130 137 140 143 147 149 151 152 153 
229 241 242 238 234 230 220 203 185 171 159 152 158 164 175 196 218 233 228 202 168 153 137 124 109 100 100 102 93 98 100 102 109 118 125 132 140 142 145 143 138 139 139 135 134 133 134 137 140 141 142 143 139 140 142 144 147 150 154 157 
234 238 237 236 229 222 208 192 179 171 167 166 157 159 161 164 175 202 226 223 197 182 166 143 115 105 111 114 115 117 114 111 115 120 124 129 128 134 142 143 140 139 138 133 135 133 132 134 136 139 144 148 153 152 152 150 150 149 150 151 
239 240 236 238 236 224 208 193 183 174 166 161 155 158 155 147 145 174 213 222 220 206 193 169 136 123 126 124 120 125 128 130 133 131 127 127 127 131 137 137 134 136 139 138 131 133 136 139 140 140 142 146 149 150 153 154 154 153 153 152 
241 241 238 231 225 217 209 200 189 180 175 170 171 162 154 149 146 155 184 213 222 226 214 190 164 141 131 136 135 132 131 133 136 136 135 135 135 133 131 135 140 136 131 131 140 134 133 139 142 140 140 143 147 148 150 151 151 151 151 151 
238 235 233 229 225 219 213 205 194 186 182 178 168 162 155 150 145 145 158 174 197 219 233 219 185 152 142 149 147 141 139 138 135 134 135 134 132 131 129 132 135 132 129 131 133 138 141 140 140 141 144 144 147 148 150 150 151 151 151 152 
236 233 232 230 228 224 218 207 195 188 183 176 165 161 156 152 147 142 141 142 153 190 232 237 200 163 153 160 158 149 145 140 131 128 130 128 127 125 122 122 125 125 125 130 129 136 141 142 142 145 148 148 148 149 150 150 150 150 150 150 
238 235 232 230 228 225 217 206 194 188 180 170 165 161 157 153 150 146 140 135 132 160 203 223 205 179 167 165 161 151 145 138 127 123 123 119 122 120 117 115 118 120 124 131 132 130 132 139 143 143 142 144 148 149 150 151 150 149 148 148 
